<?xml version="1.0" encoding="UTF-8"?>
<svg xmlns="http://www.w3.org/2000/svg" xmlns:xlink="http://www.w3.org/1999/xlink" viewBox="0 0 512 172">
  <defs>
    <style>
      .cls-1 {
        fill: #fff;
      }

      .cls-2 {
        fill: none;
      }

      .cls-3 {
        clip-path: url(#clippath-1);
      }

      .cls-4 {
        fill: #617d2f;
      }
    </style>
    <clipPath id="clippath-1">
      <circle class="cls-2" cx="256" cy="467.5" r="227.5"/>
    </clipPath>
  </defs>
  <g id="Isolation_Mode">
    <g>
      <path class="cls-1" d="M147.74,57.87c-.63-.32-1.27-.88-1.93-1.66-.67-.78-1.17-1.56-1.52-2.34-.35-.78-.38-1.21-.1-1.3.73-.33,1.38-1.42,1.95-3.27.57-1.85.58-3.31.03-4.39-.12-.38-.09-.78.09-1.2.19-.42.45-.74.8-.95.9-1.12,1.98-1.59,3.23-1.41,1.25.18,2.6.88,4.02,2.1,1.42,1.54,2.13,2.96,2.13,4.26-.01,1.31-.54,3.27-1.59,5.9-.82,2.35-1.8,3.8-2.93,4.36-1.13.57-2.52.53-4.18-.09M152.1,120.03c-1-.52-1.85-1.3-2.53-2.33-.7-1.03-1.17-2.14-1.43-3.31-.26-1.17-.32-2.19-.18-3.07-.24-.76-.31-1.39-.2-1.89.1-.5.05-.93-.16-1.28-.21-.35-.33-1.05-.34-2.08-.01-1.04-.01-2.03,0-2.97.19-1.73.33-3.78.42-6.15.09-2.37.14-4.71.15-7.01,0-2.29.01-4.28,0-5.95,0-1.67-.02-2.7-.04-3.11-.36-1.14.21-1.99,1.7-2.57,1.02-.74,1.86-1.03,2.54-.88s1.72.84,3.15,2.06c1,.52,1.64,1.57,1.93,3.15.28,1.58.27,3.67-.06,6.28-.15.88-.26,2.11-.33,3.7-.08,1.59-.03,2.98.14,4.18-.14.88-.26,2.09-.35,3.63-.09,1.54-.13,2.99-.12,4.34-.04.54-.02,1.28.08,2.25.09.96.15,1.99.18,3.07.03,1.09-.08,2.09-.31,3,.37,4.16.3,6.69-.21,7.57-.5.89-1.84.69-4.02-.61"/>
      <path class="cls-1" d="M188.02,114.57c-1.11.04-2.33-.28-3.65-.96-1.32-.68-2.53-1.54-3.62-2.57-1.09-1.03-1.89-2-2.39-2.91-.04-.2-.37-.53-.98-1.01-.46-.21-.95-1.45-1.5-3.72-.55-2.27-.98-4.85-1.3-7.74-.32-2.88-.47-5.19-.44-6.93.15-1.66.42-3.93.8-6.82.39-2.89.7-5.47.91-7.76l2.09-9.32-6.18-.33c-.72-.05-1.37-.31-1.93-.8-.56-.49-.89-.93-.97-1.32-.17-.78.06-1.82.69-3.13.63-1.31,1.14-2,1.53-2.09.51,0,1.42-.16,2.73-.44,1.31-.29,2.59-.62,3.83-.99,1.24-.37,2-.64,2.27-.8.34-.28.68-.63.99-1.05.31-.42.49-1,.54-1.72.25-1.17.47-2.26.66-3.27.18-1.01.49-2.17.92-3.48.4-1.41.73-2.61.98-3.58.24-.97.69-2.34,1.32-4.11.34-.79.7-1.73,1.07-2.83.37-1.1.92-2.08,1.65-2.96.71-.97,1.52-1.53,2.46-1.68.93-.15,2.27.25,4.01,1.19.99.8,1.58,1.43,1.79,1.9.2.46.02,1.47-.57,3.03-.41,1.82-.95,3.67-1.62,5.55-.66,1.88-1.25,3.74-1.76,5.58-1.09,2.48-1.12,3.76-.08,3.84,1.03.08,3.71-.71,8.04-2.37,2.72-1.1,4.78-1.42,6.21-.97,1.42.45,2.41,1.49,2.97,3.1.8,2.27.86,3.73.19,4.39s-2.86,1.39-6.55,2.19c-2.25.9-4.19,1.55-5.84,1.96-1.64.41-2.85.7-3.63.87-1.25.38-2.06.6-2.45.69-.39.08-.95.31-1.68.67-.74.37-1.23.8-1.47,1.31-.24.51-.48,1.2-.7,2.06-.3.47-.66,1.62-1.08,3.44-.42,1.83-.99,3.83-1.74,6.03-.48,4.38-.75,8.7-.85,12.94-.1,4.25-.02,8.33.22,12.25.14,2.52.56,4.19,1.24,5,.69.82,2.07,1.1,4.16.85,1.09-.14,2.81-.54,5.16-1.2,2.35-.66,4.16-1.34,5.44-2.03.96-.72,1.97-1.47,3.02-2.26,1.05-.79,2-1.58,2.84-2.37.77-.68,1.91-1.74,3.43-3.19.32-.88.8-1.24,1.45-1.08.65.16,1.29.79,1.93,1.87.26,1.17.28,2.44.07,3.81-.21,1.37-1.68,3.27-4.41,5.7-3.79,3.68-7.44,6.18-10.97,7.51-3.53,1.33-6.61,2.03-9.25,2.09"/>
      <path class="cls-1" d="M241.12,107.53c-1.43-.26-2.61-.61-3.56-1.07-.94-.45-2.22-1.25-3.84-2.39-1.35-1.46-2.41-2.86-3.19-4.18-.79-1.32-1.37-2.89-1.75-4.7-.39-1.81-.72-4.15-1.01-7.02-.12-1.19-.08-3,.13-5.42.21-2.42.5-4.98.88-7.66.38-2.69.74-5.1,1.07-7.23.33-2.13.52-3.51.56-4.11.17-1.31-.4-2.01-1.71-2.08-1.31-.07-2.73,0-4.26.2-1.53.2-2.55.18-3.08-.06-.41-.06-.63-.34-.68-.83-.04-.39-.09-.67-.16-.81-.06-.14-.27-.44-.62-.91-.24-.37-.17-.96.2-1.75.37-.78,1.09-1.33,2.16-1.64.87-.29,2.06-.58,3.58-.89,1.52-.3,3.04-.8,4.58-1.51,1.53-.7,2.73-1.7,3.6-2.99.67-2.26,1.47-4.8,2.39-7.59.92-2.79,1.85-5.31,2.77-7.55.92-2.24,1.56-3.63,1.9-4.17,1.6-1.06,2.79-1.56,3.6-1.49.8.07,1.79.85,2.94,2.33.56.64.99,1.15,1.28,1.52.28.37.37.96.26,1.77-.12.82-.52,2.11-1.19,3.87-.67,1.77-1.69,4.32-3.05,7.66-.4,1.04-.92,2.34-1.56,3.91.4.06,1,.05,1.8-.03.79-.08,1.78-.23,2.96-.45,1.06-.31,2.44-.62,4.11-.94,1.67-.32,3.01-.43,4.02-.33,2.28-.23,4,.03,5.18.76,1.17.73,1.91,2.08,2.21,4.05.31,1.07.15,1.73-.47,1.99-.63.27-2.27.53-4.95.8-.89.09-2.28.28-4.15.56-1.87.29-3.82.59-5.84.89-2.02.31-3.74.6-5.16.89-1.42.3-2.12.54-2.1.74-.28.23-.66,1.22-1.13,2.97-.48,1.75-.93,3.72-1.36,5.91-.43,2.2-.81,4.16-1.13,5.89-.35,3.44-.54,6.86-.55,10.26,0,3.4.21,6.33.66,8.78.45,2.46,1.17,4.13,2.16,5.03.98.8,2.73.8,5.25,0,2.52-.8,4.51-1.93,5.96-3.37,1.64-1.67,3.02-2.55,4.16-2.67,1.14-.12,1.83.34,2.09,1.36.25,1.02-.17,2.54-1.27,4.55-1.01,1.9-2.34,3.61-3.98,5.13-1.65,1.52-3.41,2.64-5.29,3.38-1.88.74-3.68.94-5.41.62"/>
      <path class="cls-1" d="M281.62,102.39c-.8.18-1.85.23-3.14.15-1.29-.08-2.41-.26-3.34-.53-.94-.27-1.41-.56-1.4-.86.02-.49-.23-.75-.72-.76-.88-.82-1.76-1.43-2.64-1.86-.86-1.41-1.27-2.94-1.23-4.58.04-1.64.55-4.24,1.54-7.8.36-2.48,1.4-5.37,3.12-8.66,1.72-3.29,3.82-6.65,6.29-10.07,2.47-3.42,5.06-6.49,7.76-9.22,2.7-2.72,5.17-4.7,7.39-5.94,1.43-1.36,3.14-2.06,5.13-2.11,1.99-.05,3.87.44,5.64,1.48.98.52,1.96,1.34,2.93,2.46.96,1.12,1.88,2.33,2.75,3.65.86,1.32,1.58,2.63,2.14,3.94.27,1.1.42,2.08.45,2.92.03.85,0,1.86-.08,3.06-.08,1.19-.29,2.98-.65,5.36-.54,1.78-1.02,3.96-1.43,6.54-.41,2.58-.64,4.81-.69,6.7-.24,1.89-.05,3.23.58,4.05.63.81,1.59.89,2.91.22,1.21-.56,2.36-.81,3.45-.74,1.09.08,1.95.42,2.59,1.03.63.61.93,1.52.9,2.71-.03,1.19-.63,2.4-1.81,3.61-1.17,1.22-2.59,2.23-4.25,3.03-1.66.81-3.24,1.19-4.73,1.16-1.1-.03-2.12-.72-3.09-2.09-.96-1.37-1.79-3.03-2.49-4.99-.7-1.96-1.33-3.84-1.88-5.65l-.82-3.45-6.56,5.96c-1.33,1.36-2.63,2.6-3.9,3.71-1.27,1.12-2.06,1.92-2.37,2.4-.52.88-1.46,1.76-2.82,2.62-1.36.86-3.21,1.71-5.51,2.55M282.28,93.59c1.71-.95,3.69-2.37,5.93-4.26,2.24-1.89,4.43-3.97,6.57-6.27,2.15-2.28,3.94-4.4,5.38-6.36,1.74-2.25,3.09-4.35,4.04-6.32.94-1.97,1.64-3.84,2.08-5.62-.37-1.1-.99-2.29-1.86-3.55-.87-1.27-1.65-1.96-2.34-2.07-2.19-.05-4.53,1.26-7.04,3.93-2.5,2.68-4.94,5.58-7.3,8.71-.41.49-.98,1.27-1.7,2.35-.72,1.08-1.42,2.08-2.08,3.01-.68.93-1.11,1.54-1.32,1.83-.31.39-.91,1.5-1.8,3.32-.89,1.82-1.76,3.64-2.6,5.46-.84,1.82-1.27,3.03-1.28,3.63-.02.6.05,1.25.18,1.95.13.7.59,1.16,1.38,1.38.79.22,2.04-.15,3.76-1.1"/>
      <path class="cls-1" d="M333.29,104.16c-.39-.07-.91-.44-1.55-1.1-.64-.67-1.13-1.23-1.45-1.69-.55-.9-.83-1.76-.85-2.57-.01-.81.22-2.59.69-5.33.54-3.14,1.76-6.44,3.67-9.9,1.91-3.45,4.96-8.26,9.15-14.4l6.63-9.46c.52-.72,1-1.24,1.41-1.57.41-.33.8-.67,1.16-1.01.39.07.88.15,1.47.25.78.14,1.49.74,2.11,1.81.63,1.07,1.04,2.17,1.25,3.32-.22,1.27-.62,2.57-1.2,3.88-.58,1.32-2.14,3.17-4.67,5.56-.88.96-2.1,2.62-3.66,4.98-1.57,2.36-2.7,4.44-3.42,6.23-.12.08-.38.46-.8,1.15-.42.69-.88,1.44-1.38,2.26-.5.82-1.01,1.59-1.53,2.31l-1.29,3.11,11.6-8.45c5.4-3.81,9.7-6.46,12.88-7.93,3.18-1.47,5.58-1.92,7.2-1.34,1.62.58,2.81,2.15,3.58,4.71.5,1.2.85,2.24,1.05,3.14.2.89.23,2.03.09,3.43-.14,1.39-.59,3.43-1.36,6.13l-1.57,9.12c1.54-.14,2.78-.3,3.72-.49.94-.19,1.93-.4,2.99-.62.95-.24,2.04-.43,3.28-.57,1.23-.14,2.75-.11,4.53.1-.32,1.26-.99,2.53-2.02,3.82-1.03,1.29-2.24,2.47-3.63,3.54-1.4,1.07-2.87,1.88-4.43,2.42-1.56.54-3.02.69-4.39.46-1.28-.22-2.59-1.1-3.94-2.65-1.35-1.54-2.24-3.16-2.65-4.85-.21-1.15-.23-2.36-.05-3.65.17-1.28.55-3.64,1.14-7.08l.94-5.44c.27-1.57-.12-2.12-1.16-1.64-1.05.48-1.9.91-2.57,1.3-1.69,1.02-3.49,2.23-5.39,3.62-1.9,1.39-3.84,2.82-5.81,4.3-5.32,3.93-9.67,6.77-13.05,8.51-3.38,1.74-5.61,2.52-6.69,2.33"/>
      <path class="cls-1" d="M399.76,118.46c-1.28-2.19-2.09-4.28-2.44-6.28-.35-2-.16-4.92.56-8.76.36-1.77,1.28-3.95,2.75-6.56,1.47-2.61,3.23-5.31,5.28-8.1,2.05-2.79,4.16-5.27,6.33-7.44,2.17-2.17,4.12-3.71,5.88-4.61,1.6-1.05,2.77-1.53,3.52-1.45.76.09,1.95.86,3.56,2.33.64,1.57.74,3.06.28,4.48-.46,1.42-1.55,2.85-3.26,4.27-2.72,1.95-5.39,4.61-8,8-2.61,3.39-4.65,6.53-6.1,9.41-1.99,2.91-3.12,4.95-3.39,6.12-.28,1.17.33,2.2,1.82,3.1,1.68.96,4.03.97,7.06,0,3.03-.95,6.24-2.64,9.63-5.04,3.39-2.41,6.41-5.27,9.06-8.6,1-1.14,1.95-2.56,2.86-4.25.91-1.69,1.7-2.9,2.35-3.63,1.09-1.74,2.2-2.92,3.35-3.55,1.14-.62,2.21-.85,3.2-.69.99.16,1.73.64,2.21,1.42.73.66,1.1,1.27,1.13,1.86.02.58-.41,1.93-1.31,4.05-1.13,3.5-2.86,6.24-5.17,8.21-2.31,1.97-4.43,4.16-6.36,6.57-1.5,1.72-3.47,3.53-5.92,5.46-2.46,1.93-4.97,3.57-7.56,4.93-2.58,1.36-4.9,2.13-6.94,2.31-3.2.84-5.82.92-7.83.21-2.02-.7-4.2-1.96-6.55-3.76"/>
      <path class="cls-1" d="M447.73,144.29c-.91-.64-1.69-1.63-2.32-2.97-.64-1.34-1.08-2.75-1.32-4.23-.24-1.48-.29-2.74-.15-3.77.08-.18.03-.64-.18-1.4-.23-.44.12-1.73,1.06-3.87.94-2.14,2.15-4.46,3.63-6.95,1.49-2.49,2.76-4.42,3.84-5.79,1.12-1.24,2.71-2.89,4.76-4.95,2.06-2.06,3.86-3.94,5.42-5.64l7.3-6.15-4.72-4.01c-.55-.47-.9-1.07-1.06-1.81-.15-.73-.15-1.28.02-1.64.33-.72,1.15-1.42,2.44-2.07,1.29-.66,2.12-.91,2.48-.74.41.3,1.22.74,2.44,1.3,1.22.57,2.43,1.08,3.65,1.53,1.21.46,1.98.7,2.29.73.44-.01.92-.09,1.43-.24.51-.15,1-.5,1.47-1.04.91-.78,1.75-1.52,2.5-2.21.76-.69,1.71-1.43,2.84-2.22,1.17-.88,2.16-1.63,2.94-2.25.78-.63,1.96-1.45,3.53-2.47.74-.42,1.6-.96,2.56-1.61.96-.65,2-1.1,3.1-1.36,1.15-.34,2.14-.3,2.98.15.83.45,1.66,1.57,2.47,3.37.3,1.24.39,2.11.27,2.6-.12.49-.88,1.18-2.28,2.07-1.44,1.2-2.98,2.35-4.64,3.44-1.66,1.1-3.25,2.22-4.77,3.38-2.37,1.32-3.16,2.32-2.39,3.01.78.69,3.39,1.68,7.84,2.98,2.83.76,4.67,1.75,5.53,2.98.86,1.22,1.02,2.64.49,4.26-.74,2.29-1.57,3.5-2.5,3.61-.93.12-3.11-.62-6.54-2.21-2.33-.64-4.28-1.3-5.84-1.97-1.56-.67-2.69-1.17-3.42-1.5-1.21-.45-2-.77-2.36-.93-.36-.17-.94-.33-1.75-.48-.81-.16-1.46-.1-1.97.16-.51.26-1.1.67-1.8,1.22-.53.2-1.51.89-2.95,2.09-1.43,1.2-3.11,2.45-5.03,3.75-3.03,3.21-5.86,6.47-8.5,9.8-2.64,3.33-5.05,6.63-7.22,9.9-1.41,2.09-2.09,3.66-2.03,4.73.05,1.07.98,2.13,2.8,3.19.95.55,2.57,1.27,4.84,2.16,2.27.89,4.13,1.45,5.56,1.68,1.2,0,2.46.02,3.77.02,1.31,0,2.55-.05,3.7-.17,1.02-.08,2.58-.23,4.66-.47.79-.51,1.39-.51,1.81.01.42.52.55,1.41.41,2.66-.5,1.08-1.25,2.11-2.25,3.07-1,.96-3.32,1.59-6.96,1.87-5.23.64-9.66.43-13.28-.64-3.62-1.07-6.5-2.38-8.63-3.92"/>
      <path class="cls-4" d="M114.07,43.5c-2.42,6.01-3.63,13-5.71,20.26-1.66,5.79-4.04,9.87-6.96,16.4-1.49,3.32-2.04,9.98-1.44,14.08.32,2.12,1.47,5.05,2.67,7.72-1,5.32-1.7,10.38-2.15,14.55-.09.85-.18,1.65-.26,2.43-1.56-2.54-3.17-5.24-5.01-7.91-.07-.1-.14-.2-.2-.29.86-4.64-.35-13.52-5.36-19.74-10.41-12.94-20.36-27.23-47.68-39.26-10.18-4.49-21.9-7.43-33.47-14.51,3.3,9.71,11.84,19.07,22.02,28.84,4.03,4.41,7.54,9.31,12.09,15.17,16.37,30.15,36.52,33.1,37.89,33.3.69.1,8.2,1.01,9.32.36-6.38-12.43-33.33-35.08-42.54-45.99,8.23,3.12,35.6,31.53,43.69,43.28.24.37.49.75.73,1.12,1.73,2.7,3.23,5.42,4.69,7.97,1.35,2.62,2.7,5.05,3.75,7.39,1.12,2.31,2.04,4.46,2.84,6.38.79,1.92,1.43,3.61,1.93,5,.49,1.4.87,2.49,1.09,3.23.21.72.33,1.1.33,1.1l.05.16s.02.05.02.07c.47,1.4,1.98,2.15,3.38,1.69,1.39-.47,2.15-1.98,1.69-3.38,0,0-.15-.44-.43-1.28-.27-.81-.7-1.96-1.27-3.42-.58-1.44-1.3-3.19-2.19-5.16-.77-1.68-1.63-3.54-2.64-5.51,0,0,0-1.06.02-2.9.03-1.86.11-4.54.3-7.75.15-2.57.38-5.51.7-8.63.75-6.44,1.57-11.69,2.48-16.11.32-1.5.64-3,1.02-4.46.05-.2.1-.41.15-.6.47-1.77.98-3.49,1.53-5.16,1.64-4.79,3.55-8.51,5.87-12.36-4.75,10.3-7.36,24.63-9.53,38.89,14.17,2.26,20.16-3.51,21.73-18.14,1.03-10.09,2.08-22.18.28-34.09-1.79-11.89-4.54-23.55-3.74-33.46-4.93,3.58-7.83,11.19-11.67,20.72"/>
    </g>
  </g>
  <g id="Capa_1">
    <g class="cls-3">
      <path class="cls-1" d="M487.9,467.29c0-41.02-10.77-79.53-29.56-112.97l-.08-150.32c0-23.42-18.9-42.51-42.12-42.51H94.88c-23.21,0-42.1,19.08-42.1,42.51l.1,153.38c-17.73,32.71-27.81,70.14-27.81,109.91s10.38,78.27,28.6,111.3l.08,272.29c0,23.41,18.88,42.51,42.09,42.51h321.26c23.23,0,42.12-19.1,42.12-42.51l-.08-271.98c18.3-33.13,28.77-71.17,28.77-111.61Z"/>
    </g>
  </g>
</svg>