<?xml version="1.0" encoding="UTF-8"?>
<svg id="Capa_1" xmlns="http://www.w3.org/2000/svg" viewBox="0 0 512 512">
  <defs>
    <style>
      .cls-1 {
        fill: #fff;
      }

      .cls-2 {
        fill: #069548;
        fill-rule: evenodd;
      }
    </style>
  </defs>
  <path class="cls-2" d="M470.76,255.97c0,118.35-95.96,214.3-214.27,214.3-118.33-.03-214.29-95.93-214.29-214.3S138.16,41.73,256.49,41.73s214.27,95.9,214.27,214.24Z"/>
  <g>
    <path class="cls-1" d="M391.11,233.83c27.55-35.82,38.3-68.58,25-87.79-23.56-34.06-113.77-12.49-201.48,48.2-3.78,2.63-7.4,5.28-11.04,7.94-11.67-8.67-26.1-13.84-41.75-13.84-38.79,0-70.35,31.55-70.35,70.34,0,16.64,5.82,31.9,15.5,43.97-14.72,25.85-18.64,48.51-8.47,63.2,22.69,32.8,107.13,13.98,191.67-41.59h43.62l1.97-7.85,1.67-6.7h14.97l1.68,6.7,1.97,7.85h66.36l-4.76-13.76-26.55-76.66h-.01ZM365.95,177.38c2.4,3.47,4.03,7.38,4.95,11.61h-55.74l-2.46,6.87-27.67,77.48v-84.39h-50.96c58.27-31.73,113.77-37.74,131.89-11.56h-.01ZM232.91,199.32h41.75v114.49h-41.75v-114.49ZM222.54,195.51v27.79c-4-6.86-9.15-12.97-15.18-18.1,5.06-3.41,10.12-6.66,15.18-9.7h0ZM161.83,198.7c33.13,0,59.99,26.85,59.99,59.97s-26.86,60-59.99,60-59.99-26.85-59.99-60,26.86-59.97,59.99-59.97h0ZM119.35,348.02c-6.54-9.44-7.4-21.99-3.51-36.21,12.36,10.69,28.41,17.23,45.99,17.23,2.42,0,4.82-.13,7.19-.37,22.86-2.33,42.46-15.7,53.52-34.61v30.11h44.32l-.04.07h5.01c-65.3,42.11-132.26,53.03-152.48,23.77h0ZM364.15,313.88l-3.64-14.56h-31.15l-3.66,14.56h-44.14l40.9-114.53h45.73l39.67,114.53h-43.72.01Z"/>
    <polygon class="cls-1" points="344.73 234.16 335.72 272.26 353.23 272.2 345.13 234.16 344.73 234.16"/>
    <path class="cls-1" d="M433.9,221.14c-8.87,0-16.31,6.98-16.31,16.12s7.44,16.24,16.31,16.24,16.22-6.94,16.22-16.24-7.4-16.12-16.22-16.12ZM433.9,251.12c-7.56,0-13.37-5.96-13.37-13.87s5.81-13.71,13.37-13.71,13.29,5.96,13.29,13.71-5.8,13.87-13.29,13.87Z"/>
    <path class="cls-1" d="M441.52,233.26c0-3.64-2.12-5.41-6.62-5.41h-7.31v18.91h2.94v-8.15h3.12l5.14,8.15h3.15l-5.41-8.35c2.82-.31,4.98-1.74,4.98-5.16h0ZM433.6,236.26h-3.07v-6.01h3.89c1.99,0,4.15.38,4.15,2.88,0,2.99-2.37,3.13-4.97,3.13h0Z"/>
    <path class="cls-1" d="M161.83,282.01c11.78,0,21.37-10.47,21.37-23.34s-9.59-23.31-21.37-23.31-21.36,10.47-21.36,23.31,9.58,23.34,21.36,23.34ZM161.83,245.73c6.09,0,11,5.82,11,12.94s-4.91,12.96-11,12.96-10.99-5.79-10.99-12.96,4.91-12.94,10.99-12.94h0Z"/>
  </g>
</svg>