<svg xmlns="http://www.w3.org/2000/svg" xmlns:xlink="http://www.w3.org/1999/xlink" width="500" zoomAndPan="magnify" viewBox="0 0 375 374.999991" height="500" preserveAspectRatio="xMidYMid meet" version="1.0"><path fill="#7a8130" d="M 252.839844 329.984375 C 252.839844 329.984375 228.589844 265.851562 214.507812 259.804688 C 214.316406 259.71875 214.121094 259.683594 213.894531 259.683594 C 201.390625 259.859375 170.046875 269.945312 138.703125 236.832031 C 107.359375 203.722656 58.28125 130.113281 18.542969 83.835938 C 17.542969 82.660156 18.824219 80.972656 20.246094 81.605469 C 71.117188 104.679688 124.972656 101.800781 175.578125 152.46875 C 207.082031 184 224.621094 203.300781 223.007812 253.863281 C 223.007812 254.214844 223.113281 254.550781 223.324219 254.8125 C 249.417969 286.378906 259.863281 326.46875 259.863281 326.46875 C 259.863281 326.46875 261.621094 329.984375 258.109375 331.742188 C 254.597656 333.5 252.839844 329.984375 252.839844 329.984375 Z M 252.839844 329.984375 " fill-opacity="1" fill-rule="nonzero"/><path fill="#7a8130" d="M 240.546875 289.5625 C 240.546875 289.5625 233.523438 256.167969 238.792969 226.289062 C 233.523438 212.226562 224.746094 191.136719 242.304688 155.984375 C 264.796875 110.9375 266.886719 97.984375 286.203125 41.742188 C 291.472656 48.773438 307.273438 101.5 305.519531 182.347656 C 305.042969 204.089844 294.984375 238.589844 259.863281 238.589844 C 256.351562 238.589844 252.839844 236.832031 251.085938 235.074219 C 241.390625 225.375 246.835938 286.890625 249.328125 301.863281 C 252.839844 322.953125 240.546875 289.5625 240.546875 289.5625 Z M 240.546875 289.5625 " fill-opacity="1" fill-rule="nonzero"/><path stroke-linecap="round" transform="matrix(1.755948, 0, 0, 1.757576, -10.551936, 13.621448)" fill="none" stroke-linejoin="miter" d="M 72.499797 80.49952 C 72.499797 80.49952 96.500816 95.499316 130.499108 144.499244 " stroke="#ffffff" stroke-width="3" stroke-opacity="1" stroke-miterlimit="10"/><path stroke-linecap="round" transform="matrix(1.755948, 0, 0, 1.757576, -10.551936, 13.621448)" fill="none" stroke-linejoin="miter" d="M 156.500027 87.500462 C 156.500027 87.500462 151.499166 93.499047 147.499367 131.499717 " stroke="#ffffff" stroke-width="3" stroke-opacity="1" stroke-miterlimit="10"/></svg>